<mxfile host="app.diagrams.net" agent="Mozilla/5.0 (Windows NT 10.0; Win64; x64) AppleWebKit/537.36 (KHTML, like Gecko) Chrome/139.0.0.0 Safari/537.36" version="27.1.4">
  <diagram name="Stránka-1" id="Cx62tHisEiuF-fnOXezB">
    <mxGraphModel grid="1" page="1" gridSize="10" guides="1" tooltips="1" connect="1" arrows="1" fold="1" pageScale="1" pageWidth="827" pageHeight="1169" math="0" shadow="0">
      <root>
        <mxCell id="0" />
        <mxCell id="1" parent="0" />
        <mxCell id="es4Ewkok0Cp3qVvy6Lig-8" style="edgeStyle=orthogonalEdgeStyle;rounded=0;orthogonalLoop=1;jettySize=auto;html=1;entryX=0;entryY=0.5;entryDx=0;entryDy=0;" edge="1" parent="1" source="es4Ewkok0Cp3qVvy6Lig-1" target="es4Ewkok0Cp3qVvy6Lig-4">
          <mxGeometry relative="1" as="geometry" />
        </mxCell>
        <mxCell id="es4Ewkok0Cp3qVvy6Lig-1" value="" style="ellipse;html=1;shape=startState;fillColor=#000000;strokeColor=#000000;" vertex="1" parent="1">
          <mxGeometry x="100" y="70" width="30" height="30" as="geometry" />
        </mxCell>
        <mxCell id="es4Ewkok0Cp3qVvy6Lig-3" value="" style="ellipse;html=1;shape=endState;fillColor=#000000;strokeColor=#000000;" vertex="1" parent="1">
          <mxGeometry x="730" y="122.5" width="30" height="30" as="geometry" />
        </mxCell>
        <mxCell id="es4Ewkok0Cp3qVvy6Lig-6" style="edgeStyle=orthogonalEdgeStyle;rounded=0;orthogonalLoop=1;jettySize=auto;html=1;entryX=0;entryY=0.5;entryDx=0;entryDy=0;" edge="1" parent="1" source="es4Ewkok0Cp3qVvy6Lig-4" target="es4Ewkok0Cp3qVvy6Lig-5">
          <mxGeometry relative="1" as="geometry" />
        </mxCell>
        <mxCell id="es4Ewkok0Cp3qVvy6Lig-11" style="edgeStyle=orthogonalEdgeStyle;rounded=0;orthogonalLoop=1;jettySize=auto;html=1;entryX=0;entryY=0.5;entryDx=0;entryDy=0;" edge="1" parent="1" source="es4Ewkok0Cp3qVvy6Lig-4" target="es4Ewkok0Cp3qVvy6Lig-10">
          <mxGeometry relative="1" as="geometry">
            <Array as="points">
              <mxPoint x="215" y="138" />
            </Array>
          </mxGeometry>
        </mxCell>
        <mxCell id="es4Ewkok0Cp3qVvy6Lig-4" value="Rozpracovaný" style="rounded=1;whiteSpace=wrap;html=1;" vertex="1" parent="1">
          <mxGeometry x="170" y="67.5" width="90" height="35" as="geometry" />
        </mxCell>
        <mxCell id="es4Ewkok0Cp3qVvy6Lig-21" style="edgeStyle=orthogonalEdgeStyle;rounded=0;orthogonalLoop=1;jettySize=auto;html=1;entryX=0.5;entryY=0;entryDx=0;entryDy=0;" edge="1" parent="1" source="es4Ewkok0Cp3qVvy6Lig-5" target="es4Ewkok0Cp3qVvy6Lig-16">
          <mxGeometry relative="1" as="geometry" />
        </mxCell>
        <mxCell id="es4Ewkok0Cp3qVvy6Lig-5" value="Dokončený" style="rounded=1;whiteSpace=wrap;html=1;" vertex="1" parent="1">
          <mxGeometry x="420" y="67.5" width="70" height="35" as="geometry" />
        </mxCell>
        <mxCell id="es4Ewkok0Cp3qVvy6Lig-9" value="[změna stavu projektu]&amp;nbsp;&lt;div&gt;Dokončený&lt;/div&gt;" style="text;html=1;align=center;verticalAlign=middle;resizable=0;points=[];autosize=1;strokeColor=none;fillColor=none;fontSize=10;" vertex="1" parent="1">
          <mxGeometry x="274" y="50" width="130" height="40" as="geometry" />
        </mxCell>
        <mxCell id="es4Ewkok0Cp3qVvy6Lig-17" style="edgeStyle=orthogonalEdgeStyle;rounded=0;orthogonalLoop=1;jettySize=auto;html=1;entryX=0;entryY=0.5;entryDx=0;entryDy=0;" edge="1" parent="1" source="es4Ewkok0Cp3qVvy6Lig-10" target="es4Ewkok0Cp3qVvy6Lig-16">
          <mxGeometry relative="1" as="geometry" />
        </mxCell>
        <mxCell id="es4Ewkok0Cp3qVvy6Lig-19" style="edgeStyle=orthogonalEdgeStyle;rounded=0;orthogonalLoop=1;jettySize=auto;html=1;entryX=0.5;entryY=1;entryDx=0;entryDy=0;" edge="1" parent="1" source="es4Ewkok0Cp3qVvy6Lig-10" target="es4Ewkok0Cp3qVvy6Lig-3">
          <mxGeometry relative="1" as="geometry">
            <Array as="points">
              <mxPoint x="460" y="173" />
              <mxPoint x="745" y="173" />
            </Array>
          </mxGeometry>
        </mxCell>
        <mxCell id="es4Ewkok0Cp3qVvy6Lig-10" value="Neaktivní" style="rounded=1;whiteSpace=wrap;html=1;" vertex="1" parent="1">
          <mxGeometry x="420" y="120" width="70" height="35" as="geometry" />
        </mxCell>
        <mxCell id="es4Ewkok0Cp3qVvy6Lig-12" value="[změna stavu projektu]&amp;nbsp;&lt;div&gt;Neaktivní&lt;/div&gt;" style="text;html=1;align=center;verticalAlign=middle;resizable=0;points=[];autosize=1;strokeColor=none;fillColor=none;fontSize=10;" vertex="1" parent="1">
          <mxGeometry x="270" y="100" width="130" height="40" as="geometry" />
        </mxCell>
        <mxCell id="es4Ewkok0Cp3qVvy6Lig-14" value="[změna stavu projektu]&amp;nbsp;&lt;div&gt;Smazaný&lt;/div&gt;" style="text;html=1;align=center;verticalAlign=middle;resizable=0;points=[];autosize=1;strokeColor=none;fillColor=none;fontSize=10;" vertex="1" parent="1">
          <mxGeometry x="490" y="100" width="130" height="40" as="geometry" />
        </mxCell>
        <mxCell id="es4Ewkok0Cp3qVvy6Lig-18" style="edgeStyle=orthogonalEdgeStyle;rounded=0;orthogonalLoop=1;jettySize=auto;html=1;entryX=0;entryY=0.5;entryDx=0;entryDy=0;" edge="1" parent="1" source="es4Ewkok0Cp3qVvy6Lig-16" target="es4Ewkok0Cp3qVvy6Lig-3">
          <mxGeometry relative="1" as="geometry" />
        </mxCell>
        <mxCell id="es4Ewkok0Cp3qVvy6Lig-16" value="Smazaný" style="rounded=1;whiteSpace=wrap;html=1;" vertex="1" parent="1">
          <mxGeometry x="610" y="120" width="70" height="35" as="geometry" />
        </mxCell>
        <mxCell id="es4Ewkok0Cp3qVvy6Lig-20" value="[konec editace] Neaktivní" style="text;html=1;align=center;verticalAlign=middle;resizable=0;points=[];autosize=1;strokeColor=none;fillColor=none;fontSize=10;" vertex="1" parent="1">
          <mxGeometry x="505" y="175" width="140" height="30" as="geometry" />
        </mxCell>
        <mxCell id="es4Ewkok0Cp3qVvy6Lig-23" value="[změna stavu projektu]&amp;nbsp;&lt;div&gt;Smazaný&lt;/div&gt;" style="text;html=1;align=center;verticalAlign=middle;resizable=0;points=[];autosize=1;strokeColor=none;fillColor=none;fontSize=10;" vertex="1" parent="1">
          <mxGeometry x="500" y="50" width="130" height="40" as="geometry" />
        </mxCell>
      </root>
    </mxGraphModel>
  </diagram>
</mxfile>
